<svg width="22" height="22" viewBox="0 0 22 22" fill="none" xmlns="http://www.w3.org/2000/svg">
<path fill-rule="evenodd" clip-rule="evenodd" d="M10.5417 2.52081C6.11192 2.52081 2.52087 6.11186 2.52087 10.5416C2.52087 14.9714 6.11192 18.5625 10.5417 18.5625C14.9715 18.5625 18.5625 14.9714 18.5625 10.5416C18.5625 6.11186 14.9715 2.52081 10.5417 2.52081ZM1.14587 10.5416C1.14587 5.35247 5.35253 1.14581 10.5417 1.14581C15.7309 1.14581 19.9375 5.35247 19.9375 10.5416C19.9375 15.7308 15.7309 19.9375 10.5417 19.9375C5.35253 19.9375 1.14587 15.7308 1.14587 10.5416ZM17.8472 17.8472C18.1157 17.5787 18.551 17.5787 18.8195 17.8472L20.6528 19.6805C20.9213 19.949 20.9213 20.3843 20.6528 20.6528C20.3844 20.9213 19.9491 20.9213 19.6806 20.6528L17.8472 18.8195C17.5788 18.551 17.5788 18.1157 17.8472 17.8472Z" fill="#2D2D2B"/>
</svg>
